# xmcd CD database file generated by OrangeCD 4.2
#
# Track frame offsets:
#	150
#	10172
#	20957
#	31502
#	40952
#	51889
#	63475
#	75215
#	86707
#	97120
#	108925
#	119312
#	133815
#	143962
#	155630
#	166867
#	177922
#	189290
#	200040
#	211977
#
# Disc length: 2982 seconds
#
# Revision: 0
# Processed by: cddbd v1.4PL0 Copyright (c) Steve Scherf et al.
# Submitted via: OrangeCD 4.2
#
DISCID=110ba414
DTITLE=Patsy Cline - The Patsy Cline Collection
DYEAR=1997
DGENRE=Country
TTITLE0=Turn The Cards Slowly
TTITLE1=Honky Tonk Merry Go Round
TTITLE2=I Love You, Honey
TTITLE3=Come On In (And Make Yourself At Home)
TTITLE4=I Don't Wanta
TTITLE5=I've Loved And Lost Again
TTITLE6=Walkin' After Midnight
TTITLE7=The Heart You Break May Be Your Own
TTITLE8=Pick Me Up On Your Way Down
TTITLE9=Today, Tomorrow and Forever
TTITLE10=Too Many Secrets
TTITLE11=Then You'll Know
TTITLE12=Three Cigarettes (In An Ash Tray)
TTITLE13=In Care Of The Blues
TTITLE14=Hungry For Love
TTITLE15=I Can't Forget
TTITLE16=Just Out Of Reach (Of My Two Open Arms)
TTITLE17=I Can See An Angel
TTITLE18=Let The Teardrops Fall
TTITLE19=Never No More
EXTD=
EXTT0=
EXTT1=
EXTT2=
EXTT3=
EXTT4=
EXTT5=
EXTT6=
EXTT7=
EXTT8=
EXTT9=
EXTT10=
EXTT11=
EXTT12=
EXTT13=
EXTT14=
EXTT15=
EXTT16=
EXTT17=
EXTT18=
EXTT19=
PLAYORDER=
